<?xml version="1.0" encoding="utf-8"?>
<!-- Generator: Adobe Illustrator 27.0.0, SVG Export Plug-In . SVG Version: 6.00 Build 0)  -->
<svg version="1.1" id="Main" xmlns="http://www.w3.org/2000/svg" xmlns:xlink="http://www.w3.org/1999/xlink" x="0px" y="0px"
	 viewBox="0 0 2880 2880" style="enable-background:new 0 0 2880 2880;" xml:space="preserve">
<style type="text/css">
	.st0{fill:#FFFFFF;}
	
		.st1{opacity:0.3;clip-path:url(#SVGID_00000098920696694485836920000009816442055489843110_);fill:url(#SVGID_00000155826643473257084390000016380894616332044459_);}
	
		.st2{opacity:0.3;clip-path:url(#SVGID_00000165944498110991633390000000236492990078214302_);fill:url(#SVGID_00000114779576034691623880000000704965383066687384_);}
</style>
<g id="_x32_">
	<path class="st0" d="M2617.6,991.3c11.8-21.3,28.2-51.6,40.9-74.2c0.5-91.7,1-183.4,1.5-275.2c-115.9-96.3-344.3-231.4-523.8-296
		c0,0,0,0,0,0c-427-182.1-1064.8-162.2-1469.7,31.3c0,0,0,0,0-0.1C507.1,445.8,356.1,534.2,220,641.9c0.1,65.7,0.4,243.8,0.5,273.4
		c13.9,25.4,27.9,50.7,41.9,76c-14.2,30.6-28.3,61-42.4,91.5v658.6c84.3,143.7,244.7,375.9,518.9,582.2
		C1012.5,2529.4,1279,2619,1440,2660c161.8-40.9,432.2-131.1,708.6-341c269.7-204.8,427.8-434.4,511.5-577.6v-658.8
		C2645.9,1052.1,2631.7,1021.8,2617.6,991.3z"/>
	<path d="M2490.2,1039.8c10.5-19,25.2-46,36.5-66.2c0.5-81.8,0.9-163.6,1.4-245.4c-103.4-85.9-307.1-206.3-467.1-264c0,0,0,0,0,0
		c-380.8-162.4-949.7-144.7-1310.8,27.9c0,0,0,0,0-0.1C608,553.3,473.4,632.2,351.9,728.2c0.1,58.6,0.4,217.4,0.5,243.8
		c12.4,22.6,24.9,45.2,37.4,67.8c-12.6,27.3-25.3,54.4-37.8,81.6v587.4c75.2,128.2,218.2,335.3,462.8,519.3
		c244,183.6,481.7,263.4,625.3,300c144.3-36.5,385.4-116.9,631.9-304.1c240.5-182.6,381.6-387.4,456.1-515.2v-587.6
		C2515.5,1094,2502.8,1067,2490.2,1039.8z"/>
	<g>
		<path class="st0" d="M1248.7,628.8c42.3-3.5,84.9-5.3,127.5-5.4l0,1489.7c21,7.2,42.3,13.5,63.8,19.5
			c111.1-31.2,218.4-75.8,318.7-132.9v-87.8l0,0v-640.7c-40.8-20.8-83.3-39.6-127.5-56.6v563.1h0v147.6
			c-40.4,19.8-85.6,39-127.5,54.1l0-1355.9c42.6,0.1,85.2,1.9,127.5,5.4v119.7c42.8,3.8,85.5,9.5,127.5,17V515.6
			c-161.5-42.9-475.6-42.9-637.4,0v249.9c42-7.5,84.7-13.3,127.5-17V628.8z"/>
		<path class="st0" d="M866.3,1642.5V1513c0.5-0.8,0.9-1.6,1.4-2.3h-1.4v-354.9c-46.6,31.9-88.6,66.9-127.5,107.1v363.4c0,0,0,0,0,0
			v56.2c138.7,163.2,314,294.9,509.8,381.4v-116.9h0c0-108.2,0-950.5,0-1078.1c-43,8.1-85.5,18.3-127.5,30.8V1854
			C1027.7,1794.7,941.9,1723.4,866.3,1642.5z"/>
		<path class="st0" d="M2396.5,1028.6c0-12.7,0.4-214.4,0.4-214.4c-67-53-245.4-185.3-510.1-266.3v134.2c40.9,13,83.6,28.8,127.6,48
			c84.7,37.6,165.3,83.1,240.1,136.5c5,3.6,10,7.2,14.9,10.8v153.9c-5.5-4.6-10.8-9.1-16.2-13.5c-0.6-0.5-1.1-0.9-1.7-1.4
			c-79.5-65.4-147.7-110.6-237.1-155.3c-36.2-18.7-77.6-39.8-127.6-58.8v1115.2c44.4-31.9,87-66.5,127.5-103.3v-582.1
			c0,0.1,0,0.1,0.1,0.1v-224.1c72.5,41.2,140.6,90.4,200.2,147.7v-0.3c19.4,18.6,37.4,37.4,54.9,57.5v430
			c-183.5,306.5-484.1,524.2-829,621.6c-351.9-100-642.1-313.7-829-621.6v-430c17.4-20,35.4-38.9,54.8-57.5v0.3
			c93.6-89.9,208-160.2,327.8-210.2V547.9c-264.7,81-443,213.2-510.1,266.3c0.1,51.6,0.4,191.2,0.4,214.4
			c12.3,20.3,22.8,39.2,32.9,59.6c0.1,0,0.1,0.1,0.1,0.1l-33.3,71.7v516.4c37.2,66.5,80.2,129.7,127.4,189.5c0.1,0,0.1,0.1,0.2,0.1
			c76.8,93.6,200.5,222.8,381.2,336.8c172.1,108.6,333.5,164.1,447.7,193.8c115.7-29.8,282.8-86.9,460.6-201.4
			c174-112,293.5-237.5,368.4-329.2c0,0,0-0.1,0.1-0.1c47.3-59.7,90.2-123.1,127.5-189.5v-516.6c-10.9-23.8-22.5-47.8-33.3-71.6
			C2373.1,1071.4,2386.7,1046,2396.5,1028.6z M611.4,877.4c79.1-58.1,164.7-107.2,255-147.3v131c-96.1,48.1-167.6,96.6-255,170.3
			V877.4z"/>
	</g>
</g>
</svg>
